<?xml version="1.0" encoding="UTF-8" standalone="no"?>
<!-- Created with Inkscape (http://www.inkscape.org/) -->

<svg
   xmlns:dc="http://purl.org/dc/elements/1.1/"
   xmlns:cc="http://creativecommons.org/ns#"
   xmlns:rdf="http://www.w3.org/1999/02/22-rdf-syntax-ns#"
   xmlns:svg="http://www.w3.org/2000/svg"
   xmlns="http://www.w3.org/2000/svg"
   xmlns:sodipodi="http://sodipodi.sourceforge.net/DTD/sodipodi-0.dtd"
   xmlns:inkscape="http://www.inkscape.org/namespaces/inkscape"
   width="63mm"
   height="27.214285mm"
   viewBox="0 0 63 27.214285"
   version="1.1"
   id="svg8"
   inkscape:version="0.92.2 (5c3e80d, 2017-08-06)"
   sodipodi:docname="logo.svg">
  <defs
     id="defs2">
    <inkscape:perspective
       sodipodi:type="inkscape:persp3d"
       inkscape:vp_x="0 : 148.5 : 1"
       inkscape:vp_y="0 : 999.99998 : 0"
       inkscape:vp_z="210.00001 : 148.5 : 1"
       inkscape:persp3d-origin="105.00001 : 98.999998 : 1"
       id="perspective3736" />
  </defs>
  <sodipodi:namedview
     id="base"
     pagecolor="#ffffff"
     bordercolor="#666666"
     borderopacity="1.0"
     inkscape:pageopacity="0.0"
     inkscape:pageshadow="2"
     inkscape:zoom="2.8"
     inkscape:cx="27.051562"
     inkscape:cy="76.106162"
     inkscape:document-units="mm"
     inkscape:current-layer="layer1"
     showgrid="false"
     inkscape:window-width="1920"
     inkscape:window-height="1017"
     inkscape:window-x="-8"
     inkscape:window-y="-8"
     inkscape:window-maximized="1"
     fit-margin-top="0"
     fit-margin-left="0"
     fit-margin-right="0"
     fit-margin-bottom="0" />
  <metadata
     id="metadata5">
    <rdf:RDF>
      <cc:Work
         rdf:about="">
        <dc:format>image/svg+xml</dc:format>
        <dc:type
           rdf:resource="http://purl.org/dc/dcmitype/StillImage" />
        <dc:title />
      </cc:Work>
    </rdf:RDF>
  </metadata>
  <g
     inkscape:label="Layer 1"
     inkscape:groupmode="layer"
     id="layer1"
     transform="translate(-75,-94.785713)">
    <rect
       style="fill:#916f6f;stroke-width:0.46883649"
       id="rect3771"
       width="62.999996"
       height="27.214285"
       x="75"
       y="94.785713" />
    <text
       xml:space="preserve"
       style="font-style:normal;font-weight:normal;font-size:16.93333244px;line-height:1.25;font-family:sans-serif;letter-spacing:0px;word-spacing:0px;fill:#000000;fill-opacity:1;stroke:none;stroke-width:0.26458332"
       x="82.256142"
       y="114.55682"
       id="text4604"><tspan
         sodipodi:role="line"
         x="82.256142"
         y="114.55682"
         id="tspan4602"
         style="stroke-width:0.26458332"><tspan
           x="82.256142"
           y="114.55682"
           style="font-size:16.93333244px;stroke-width:0.26458332"
           id="tspan4600">LOGO</tspan></tspan></text>
    <rect
       style="fill:none;stroke-width:0.26432747"
       id="rect4581"
       width="63"
       height="27.214285"
       x="75"
       y="94.785713" />
    <rect
       style="fill:none;stroke-width:0.26458332"
       id="rect4583"
       width="50.110123"
       height="19.273804"
       x="75"
       y="94.785713" />
    <rect
       style="fill:none;stroke-width:0.26458332"
       id="rect4585"
       width="37.041672"
       height="14.741066"
       x="88.068451"
       y="99.318443" />
    <path
       style="fill:#cccccc;stroke-width:1.42857146"
       d="M 0.07835929,51.376 V -0.05257166 H 118.64979 237.22122 V 51.376 102.80457 H 118.64979 0.07835929 Z M 62.935502,72.090285 c 0,-3.511904 -0.190476,-3.571428 -11.428571,-3.571428 H 40.078359 V 47.804571 27.090285 H 36.506931 32.935502 V 51.376 75.661714 h 15 15 z m 35.036434,0.691768 C 111.46489,64.44295 110.9462,37.244048 97.149089,29.634023 c -7.061407,-3.894839 -19.899394,-2.957679 -25.09242,1.831718 -5.14001,4.740504 -7.692595,11.301114 -7.692595,19.771376 0,11.079314 4.684908,19.976888 12.142857,23.0617 5.506281,2.27755 16.593298,1.494117 21.465005,-1.516764 z m 52.866594,0.8097 4.95411,-2.069963 V 60.73461 49.947428 h -8.57142 c -7.61905,0 -8.57143,0.31746 -8.57143,2.857143 0,2.312926 0.95238,2.857143 5,2.857143 4.95383,0 5,0.05781 5,6.261956 0,5.28627 -0.50083,6.39617 -3.21429,7.12335 -8.22108,2.203165 -18.10207,-0.59414 -20.84104,-5.900092 -4.08133,-7.906387 -2.65404,-22.064517 2.65819,-26.368175 5.18269,-4.198712 12.41656,-4.714095 20.17269,-1.43722 l 6.93873,2.931525 v -4.023064 c 0,-4.853163 -5.14591,-7.159709 -15.97334,-7.159709 -15.26832,0 -22.94703,7.387255 -23.72569,22.825169 -0.55199,10.943716 2.24652,17.445463 9.69831,22.531974 5.634,3.845706 18.66215,4.408816 26.47518,1.144325 z m 47.1334,-0.8097 c 13.49296,-8.339103 12.97427,-35.538005 -0.82284,-43.14803 -7.0614,-3.894839 -19.89939,-2.957679 -25.09242,1.831718 -5.14001,4.740504 -7.6926,11.301114 -7.6926,19.771376 0,11.079314 4.68492,19.976888 12.14286,23.0617 5.50629,2.27755 16.5933,1.494117 21.465,-1.516764 z"
       id="path822"
       inkscape:connector-curvature="0"
       transform="matrix(0.26458333,0,0,0.26458333,75,94.785713)" />
    <path
       style="fill:#ffffff;stroke-width:1.42857146"
       d="m 177.21638,65.876661 c -7.39459,-7.39459 -7.39459,-21.606733 0,-29.001323 5.43325,-5.433244 11.32892,-5.400275 17.4823,0.09776 4.44608,3.972578 4.66539,4.649623 4.66539,14.402899 0,9.753275 -0.21931,10.430321 -4.66539,14.402898 -6.15338,5.498039 -12.04905,5.531007 -17.4823,0.09776 z"
       id="path824"
       inkscape:connector-curvature="0"
       transform="matrix(0.26458333,0,0,0.26458333,75,94.785713)" />
    <path
       style="fill:#ffffff;stroke-width:1.42857146"
       d="m 77.216384,65.876661 c -7.39459,-7.39459 -7.39459,-21.606733 0,-29.001323 5.433244,-5.433244 11.328921,-5.400275 17.482294,0.09776 4.446087,3.972578 4.665396,4.649623 4.665396,14.402899 0,9.753275 -0.219309,10.430321 -4.665396,14.402898 -6.153373,5.498039 -12.04905,5.531007 -17.482294,0.09776 z"
       id="path826"
       inkscape:connector-curvature="0"
       transform="matrix(0.26458333,0,0,0.26458333,75,94.785713)" />
    <path
       style="fill:#cccccc;stroke-width:0.35714287"
       d="m 81.203597,68.520592 c -2.799213,-1.398784 -5.920004,-4.730513 -7.317039,-7.811607 -3.65392,-8.058549 -2.29306,-17.561474 3.357573,-23.446021 5.138843,-5.351572 10.503688,-5.603503 16.535273,-0.77649 2.71254,2.170816 4.362171,4.225089 4.912816,6.117892 0.597747,2.054709 0.576178,15.584612 -0.02825,17.71804 -0.350741,1.238009 -1.084484,2.227445 -3.194581,4.307824 -5.107755,5.035819 -9.54952,6.247112 -14.265797,3.890362 z"
       id="path823"
       inkscape:connector-curvature="0"
       transform="matrix(0.26458333,0,0,0.26458333,75,94.785713)" />
    <path
       style="fill:#999999;stroke-width:0.35714287"
       d="m 181.2036,68.520592 c -2.79922,-1.398784 -5.92001,-4.730513 -7.31704,-7.811607 -3.65392,-8.058549 -2.29306,-17.561474 3.35757,-23.446021 5.13884,-5.351572 10.50369,-5.603503 16.53527,-0.77649 2.71254,2.170816 4.36218,4.225089 4.91282,6.117892 0.59775,2.054709 0.57618,15.584612 -0.0282,17.71804 -0.35075,1.238009 -1.08449,2.227445 -3.19459,4.307824 -5.10775,5.035819 -9.54952,6.247112 -14.26579,3.890362 z"
       id="path825"
       inkscape:connector-curvature="0"
       transform="matrix(0.26458333,0,0,0.26458333,75,94.785713)" />
    <path
       style="fill:#999999;stroke-width:0.35714287"
       d="M 0.28965728,102.58431 C 0.15870489,102.45336 0.05156203,79.310503 0.05156203,51.155738 V -0.0347367 H 118.62299 237.19442 V 51.393835 102.82241 H 118.86109 c -65.083339,0 -118.44048036,-0.10715 -118.57143272,-0.2381 z M 147.01585,74.951935 c 0.98214,-0.241 3.35268,-1.079711 5.26786,-1.8638 l 3.48214,-1.425618 V 60.789342 49.916163 l -8.06503,0.113836 c -9.04807,0.127711 -9.07783,0.136864 -9.07783,2.792407 0,2.323315 0.5236,2.638293 4.82917,2.905032 5.1133,0.316779 4.99371,0.172465 4.98685,6.018 -0.006,5.29429 -0.38518,6.226568 -2.88584,7.099411 -2.3097,0.806186 -7.87994,0.941497 -10.91953,0.265254 -8.85681,-1.970454 -12.06353,-6.513636 -12.0768,-17.11005 -0.0156,-12.43215 4.99337,-18.545254 15.17232,-18.516885 3.82609,0.01066 6.6383,0.698931 11.80874,2.890102 2.34423,0.993454 4.38309,1.806279 4.5308,1.806279 0.14772,0 0.26858,-1.360479 0.26858,-3.023287 0,-2.883008 -0.0523,-3.082839 -1.1269,-4.306755 -2.34852,-2.674819 -6.40518,-3.741387 -14.23025,-3.741387 -5.98932,0 -9.48826,0.618674 -13.11785,2.319467 -5.84756,2.740112 -9.4642,8.046526 -10.83326,15.894819 -0.66954,3.838182 -0.5913,11.410025 0.14761,14.285715 1.95718,7.616864 7.4339,13.345575 14.51779,15.185757 4.46052,1.158707 12.92859,1.235978 17.32143,0.158057 z M 62.908705,72.656399 c 0,-2.761021 -0.06967,-3.062946 -0.803571,-3.482143 -0.583083,-0.33305 -3.69444,-0.507989 -11.339286,-0.637564 L 40.230134,68.358121 40.137944,47.73312 40.045754,27.10812 H 36.477228 32.9087 v 24.285715 24.285714 h 15 15 z m 27.702264,2.6478 c 8.707954,-1.542368 13.618061,-6.232057 16.298571,-15.566914 0.68183,-2.374479 0.80338,-3.634389 0.78772,-8.164879 -0.0212,-6.126789 -0.62988,-9.0288 -2.87491,-13.706486 -1.63535,-3.407366 -5.388299,-7.297132 -8.394684,-8.700709 -5.898543,-2.753826 -14.921525,-2.699877 -21.052065,0.125871 -5.170492,2.383233 -9.056907,8.07621 -10.552632,15.457921 -0.794632,3.921664 -0.505078,11.790343 0.571668,15.53521 2.338057,8.131654 7.008779,13.265697 13.499818,14.838965 2.476057,0.600135 8.798739,0.697821 11.716514,0.181021 z m 100.000001,0 c 8.70795,-1.542368 13.61806,-6.232057 16.29857,-15.566914 0.68183,-2.374479 0.80338,-3.634389 0.78772,-8.164879 -0.0212,-6.126789 -0.62988,-9.0288 -2.87491,-13.706486 -1.63534,-3.407366 -5.3883,-7.297132 -8.39468,-8.700709 -5.89855,-2.753826 -14.92153,-2.699877 -21.05207,0.125871 -5.17049,2.383233 -9.05691,8.07621 -10.55263,15.457921 -0.79463,3.921664 -0.50508,11.790343 0.57167,15.53521 2.33805,8.131654 7.00878,13.265697 13.49982,14.838965 2.47605,0.600135 8.79873,0.697821 11.71651,0.181021 z"
       id="path827"
       inkscape:connector-curvature="0"
       transform="matrix(0.26458333,0,0,0.26458333,75,94.785713)" />
    <path
       style="fill:#b3b3b3;stroke-width:0.35714287"
       d="m 84.337276,69.518835 c 0,-0.147322 -0.289873,-0.267857 -0.644162,-0.267857 -1.32802,0 -4.329729,-1.873803 -6.185299,-3.861144 -2.721889,-2.91518 -3.500238,-3.904395 -3.260639,-4.143995 0.115032,-0.115031 0.02165,-0.209147 -0.207519,-0.209147 -0.229166,0 -0.380569,-0.120536 -0.33645,-0.267857 0.14638,-0.488794 -0.881997,-3.660714 -1.186851,-3.660714 -0.164735,0 -0.206226,-0.243119 -0.0922,-0.540263 0.114025,-0.297144 0.06232,-0.739109 -0.114903,-0.982143 -0.378787,-0.519452 -0.344264,-7.662874 0.04132,-8.549778 0.145357,-0.334343 0.160202,-0.776308 0.03299,-0.982143 -0.127212,-0.205835 -0.08119,-0.374245 0.102282,-0.374245 0.287638,0 0.835101,-1.579699 0.92829,-2.678571 0.01666,-0.196429 0.1111,-0.4375 0.20987,-0.535715 0.09877,-0.09821 0.776097,-1.091607 1.50517,-2.207539 1.65725,-2.53662 4.240867,-5.037704 6.043762,-5.850696 0.758245,-0.341921 1.378628,-0.767466 1.378628,-0.945654 0,-0.178189 0.160714,-0.224653 0.357143,-0.103254 0.196429,0.1214 0.539659,0.107926 0.762734,-0.02994 0.527085,-0.325757 3.141176,-0.299937 4.058695,0.04009 2.19947,0.815105 4.025423,1.722295 5.069623,2.518745 0.649207,0.495175 1.180377,0.81008 1.180377,0.69979 0,-0.110291 0.796001,0.678444 1.768892,1.752744 1.912776,2.112154 3.076308,4.01824 2.922425,4.787489 -0.05316,0.26576 0.0067,0.747903 0.133009,1.071429 0.289473,0.741399 0.274981,13.531468 -0.01586,14.002068 -0.118335,0.19147 -0.17301,0.707042 -0.1215,1.145715 0.05151,0.438674 -0.165757,1.287458 -0.482818,1.886187 -0.75109,1.41834 -5.447724,5.854708 -7.157088,6.760475 -0.733024,0.38842 -1.332771,0.825338 -1.332771,0.970934 0,0.145596 -0.241071,0.172211 -0.535714,0.05915 -0.294643,-0.113067 -0.535714,-0.04271 -0.535714,0.156343 0,0.199054 -0.321429,0.277865 -0.714286,0.175129 -0.392857,-0.102736 -0.714286,-0.04751 -0.714286,0.122721 0,0.170232 -0.642857,0.309511 -1.428571,0.309511 -0.785714,0 -1.428572,-0.120536 -1.428572,-0.267857 z"
       id="path829"
       inkscape:connector-curvature="0"
       transform="matrix(0.26458333,0,0,0.26458333,75,94.785713)" />
    <path
       style="fill:#b3b3b3;stroke-width:0.35714287"
       d="M 15.86974,102.55466 0.43791774,102.4577 0.32098014,95.40791 C 0.25666442,91.530524 0.16850574,68.469728 0.12507196,44.161692 L 0.04610139,-0.0347367 H 118.62026 237.19442 V 51.393835 102.82241 l -102.94643,-0.0854 C 77.627455,102.69005 24.357242,102.60799 15.86974,102.55466 Z M 62.908705,72.796896 c 0,-2.857315 -0.265325,-3.584593 -1.397379,-3.830304 -0.268135,-0.0582 -5.077878,-0.264629 -10.688325,-0.458736 C 45.212555,68.313753 40.596398,68.120299 40.564869,68.07796 40.49113,67.978928 40.053462,36.42177 40.05238,31.125978 l -8.18e-4,-4.017858 h -3.571429 -3.571428 v 24.285715 24.285714 h 15 15 z m 28.214286,2.423367 c 1.928475,-0.429039 2.387414,-0.570192 4.237082,-1.303192 3.024586,-1.198604 7.191487,-4.229218 7.191487,-5.230415 0,-0.236878 0.25126,-0.527103 0.55835,-0.644946 0.30709,-0.117843 0.46873,-0.359268 0.3592,-0.5365 -0.10954,-0.177236 0.0512,-0.418307 0.35714,-0.535714 0.30597,-0.117411 0.45627,-0.375322 0.33402,-0.57314 -0.12226,-0.197814 -0.0426,-0.359664 0.17701,-0.359664 0.21961,0 0.29997,-0.160714 0.17857,-0.357143 -0.1214,-0.196428 -0.041,-0.357143 0.17857,-0.357143 0.21961,0 0.29997,-0.160714 0.17857,-0.357143 -0.1214,-0.196428 -0.041,-0.357142 0.17857,-0.357142 0.21962,0 0.30846,-0.14699 0.19743,-0.32664 -0.11104,-0.17965 -0.033,-0.382925 0.17336,-0.451718 0.20638,-0.06879 0.40229,-0.484307 0.43537,-0.92336 0.0331,-0.439054 0.20384,-0.798282 0.37948,-0.798282 0.17564,0 0.22685,-0.241072 0.11378,-0.535715 -0.11306,-0.294643 -0.0327,-0.535714 0.17857,-0.535714 0.21128,0 0.29362,-0.235925 0.18296,-0.524275 -0.11065,-0.288354 -0.0365,-0.626039 0.16471,-0.750414 0.20124,-0.124372 0.2816,-0.4458 0.17857,-0.714286 -0.10302,-0.268482 -0.0338,-0.583036 0.15385,-0.699004 0.20603,-0.127332 0.28097,-2.855103 0.18919,-6.886435 -0.18379,-8.072965 -0.1684,-7.861175 -0.5901,-8.121804 -0.18714,-0.115654 -0.25216,-0.352814 -0.14449,-0.527025 0.10767,-0.174211 -0.0761,-0.926496 -0.40832,-1.67175 -0.33224,-0.745254 -0.6186,-1.440571 -0.63636,-1.54515 -0.11703,-0.689279 -1.44619,-3.202714 -1.69367,-3.202714 -0.16659,0 -0.3029,-0.188157 -0.3029,-0.418129 0,-0.561403 -5.416149,-5.998348 -5.982142,-6.00511 -0.245536,-0.0029 -0.446429,-0.175532 -0.446429,-0.383553 0,-0.208021 -0.160714,-0.278894 -0.357143,-0.157494 -0.196428,0.1214 -0.357142,0.04104 -0.357142,-0.178571 0,-0.219614 -0.14699,-0.308455 -0.32664,-0.197424 -0.17965,0.111031 -0.380543,0.04481 -0.446428,-0.147166 -0.06589,-0.191972 -0.441218,-0.398515 -0.834075,-0.458986 -0.392857,-0.06047 -0.915179,-0.235317 -1.160715,-0.388548 -0.245535,-0.153232 -0.596039,-0.186139 -0.778892,-0.07313 -0.182858,0.113011 -0.420997,0.06223 -0.5292,-0.112851 -0.108208,-0.17508 -0.601454,-0.355588 -1.096108,-0.401131 -1.977485,-0.182068 -9.358335,-0.117986 -10.363657,0.08998 -1.516303,0.313669 -2.48536,0.551375 -2.589285,0.635144 -0.04911,0.03958 -0.25,0.112146 -0.446429,0.161253 -0.196429,0.04911 -0.4375,0.129465 -0.535714,0.178572 -0.09821,0.04911 -0.299107,0.116957 -0.446429,0.150778 -1.213846,0.278662 -4.373928,2.35287 -6.033496,3.960251 -1.113225,1.078219 -1.926361,1.960399 -1.806972,1.960399 0.119393,0 -0.174025,0.422005 -0.652035,0.93779 -0.478015,0.515782 -0.782283,1.078282 -0.676158,1.25 0.106129,0.171714 0.01327,0.31221 -0.206339,0.31221 -0.219614,0 -0.299971,0.160715 -0.178571,0.357143 0.1214,0.196429 0.04104,0.357143 -0.178572,0.357143 -0.219614,0 -0.299971,0.160714 -0.178571,0.357143 0.1214,0.196429 0.05053,0.357143 -0.157493,0.357143 -0.208021,0 -0.344079,0.120536 -0.302346,0.267857 0.04173,0.147321 -0.124636,0.629464 -0.369708,1.071429 -0.245071,0.441964 -0.339892,0.803571 -0.210717,0.803571 0.129178,0 0.03478,0.241071 -0.209736,0.535714 -0.244532,0.294643 -0.324889,0.535715 -0.178572,0.535715 0.146318,0 0.0718,0.234032 -0.165589,0.520071 -0.237389,0.286036 -0.334803,0.676718 -0.216475,0.868179 0.118329,0.19146 0.05427,0.447535 -0.142357,0.569057 -0.4226,0.261178 -0.426071,0.312364 -0.473075,6.971264 -0.02011,2.848214 0.06522,5.821429 0.189614,6.607143 0.466393,2.945882 0.712593,3.962354 1.2543,5.178571 0.306218,0.6875 0.531936,1.370536 0.501597,1.517858 -0.03032,0.147321 0.115043,0.267857 0.323064,0.267857 0.208021,0 0.278893,0.160714 0.157493,0.357143 -0.1214,0.196428 -0.04104,0.357142 0.178571,0.357142 0.219615,0 0.299972,0.160715 0.178572,0.357143 -0.1214,0.196429 -0.04104,0.357143 0.178571,0.357143 0.219614,0 0.299972,0.160714 0.178572,0.357143 -0.1214,0.196429 -0.05053,0.357143 0.157492,0.357143 0.208022,0 0.378222,0.241071 0.378222,0.535714 0,0.294643 0.1702,0.535714 0.378221,0.535714 0.208022,0 0.27819,0.16185 0.155932,0.359665 -0.122253,0.197818 0.02896,0.456082 0.336068,0.573925 0.307093,0.117843 0.55835,0.391182 0.55835,0.607421 0,0.5565 2.550554,3.101847 3.108197,3.101847 0.254778,0 0.463232,0.152257 0.463232,0.33835 0,0.186089 0.803571,0.741957 1.785714,1.23526 0.982143,0.4933 1.785714,0.803511 1.785714,0.68935 0,-0.11416 0.241072,-0.0075 0.535715,0.23704 0.294643,0.244532 0.535714,0.324889 0.535714,0.178571 0,-0.146318 0.234032,-0.0718 0.520071,0.165589 0.286036,0.23739 0.647643,0.357536 0.803572,0.26699 0.155925,-0.09055 0.604928,-0.04118 0.997786,0.10971 0.778839,0.299132 9.448557,0.212604 10.892857,-0.108717 z m 54.835389,0.0025 c 0.7934,-0.119792 1.9184,-0.398721 2.5,-0.61985 0.58161,-0.221125 1.13783,-0.404414 1.23604,-0.40731 0.0982,-0.0029 0.36553,-0.160425 0.59404,-0.350072 0.22851,-0.189643 0.86794,-0.426857 1.42096,-0.527139 0.55303,-0.100282 1.10725,-0.346964 1.23161,-0.548182 0.12436,-0.201218 0.2885,-0.328543 0.36475,-0.282943 0.28368,0.169646 1.93374,-0.489557 2.18674,-0.873607 0.14432,-0.219061 0.26485,-5.201607 0.26786,-11.072329 l 0.005,-10.674139 -8.00482,0.171204 c -6.25616,0.133803 -8.11539,0.281767 -8.51094,0.677325 -0.28576,0.28575 -0.5141,1.23431 -0.52445,2.178571 -0.0168,1.531157 0.0762,1.716989 1.10023,2.199557 0.6152,0.289904 2.44179,0.641164 4.05908,0.780575 1.61729,0.139407 3.22444,0.460561 3.57143,0.713672 0.52673,0.384217 0.66038,1.202328 0.80947,4.955153 0.0982,2.472222 0.0755,4.494611 -0.0506,4.494197 -0.12603,-3.58e-4 -0.32925,0.39811 -0.4516,0.885607 -0.23599,0.940239 -1.83166,1.970782 -3.05152,1.970782 -0.40262,0 -0.73203,0.120536 -0.73203,0.267857 0,0.147321 -2.00892,0.267857 -4.46428,0.267857 -2.45536,0 -4.46429,-0.10265 -4.46429,-0.228111 0,-0.12546 -0.60268,-0.337389 -1.33928,-0.47095 -1.83766,-0.333207 -4.878,-1.752146 -6.49011,-3.02896 -1.32417,-1.048761 -3.59918,-4.762643 -3.59918,-5.875543 0,-0.316254 -0.12053,-0.575336 -0.26786,-0.575739 -0.36414,-0.0011 -0.63761,-4.05414 -0.56622,-8.392125 0.0992,-6.028965 1.42568,-10.128504 4.38272,-13.545101 0.78643,-0.908642 1.51299,-1.652714 1.61459,-1.653496 0.1016,-7.14e-4 0.92333,-0.318021 1.82607,-0.704982 0.90274,-0.386961 1.86909,-0.703564 2.14745,-0.703564 0.27836,0 0.50611,-0.130355 0.50611,-0.289678 0,-0.159323 2.08928,-0.282984 4.64286,-0.274802 2.55357,0.0082 4.64285,0.157282 4.64285,0.331332 0,0.174051 0.32143,0.2324 0.71429,0.129666 0.39286,-0.102734 0.71428,-0.05389 0.71428,0.10854 0,0.265914 1.78161,0.849088 2.67858,0.876775 0.19642,0.0061 0.56951,0.211917 0.82908,0.457452 0.41429,0.391904 0.94358,0.519872 1.72027,0.415925 0.12536,-0.01678 0.34071,0.15199 0.47856,0.375032 0.13785,0.223047 0.59779,0.43169 1.02208,0.46365 0.42429,0.03196 0.77143,0.194108 0.77143,0.360329 0,0.166221 0.14699,0.211375 0.32664,0.100346 0.17965,-0.111032 0.38055,-0.05204 0.44643,0.131086 0.0659,0.183129 0.56176,0.442625 1.10193,0.576657 l 0.98215,0.243697 v -3.044486 c 0,-3.02834 -0.007,-3.051989 -1.33929,-4.459927 -1.25255,-1.323775 -3.66071,-2.876207 -3.66071,-2.359893 0,0.12731 -0.23404,0.03724 -0.52007,-0.200146 -0.28604,-0.237391 -0.67672,-0.334805 -0.86818,-0.216476 -0.19146,0.118329 -0.44237,0.06264 -0.55757,-0.123762 -0.26143,-0.423002 -0.76331,-0.453105 -8.23275,-0.493808 -3.33929,-0.0182 -6.63393,0.08259 -7.32143,0.223964 -0.6875,0.141377 -1.57143,0.313049 -1.96429,0.381494 -0.39286,0.06844 -0.75446,0.165045 -0.80357,0.214667 -0.0491,0.04962 -0.25,0.130401 -0.44643,0.179508 -0.19643,0.04911 -0.4375,0.129465 -0.53571,0.178572 -0.0982,0.04911 -0.30565,0.109375 -0.46096,0.133928 -0.55682,0.08803 -3.79738,1.844409 -4.69492,2.544643 -1.96184,1.530569 -3.84797,3.781206 -5.13225,6.1241 -0.73784,1.346032 -1.29629,2.543165 -1.24099,2.660297 0.0553,0.117128 -0.12003,0.478735 -0.38961,0.803571 -0.26959,0.324832 -0.38447,0.590604 -0.25529,0.590604 0.12917,0 0.0722,0.303957 -0.12663,0.67546 -0.59372,1.109375 -1.20374,5.968883 -1.19294,9.503111 0.0108,3.537111 0.26378,7.022904 0.52122,7.182007 0.14443,0.08926 0.1827,0.370508 0.0851,0.624986 -0.0977,0.254479 10e-4,0.932364 0.21927,1.506418 0.21826,0.574054 0.35521,1.043732 0.30435,1.043732 -0.15045,0 1.87067,3.440604 3.04205,5.178572 1.42485,2.114053 3.10572,3.928571 3.63921,3.928571 0.23509,0 0.51995,0.241071 0.63302,0.535714 0.11306,0.294643 0.43829,0.535715 0.72273,0.535715 0.28444,0 0.57073,0.120535 0.63621,0.267857 0.15523,0.349275 2.70618,1.645218 2.89782,1.472168 0.0809,-0.07309 0.41293,0.08769 0.73777,0.357275 0.32483,0.269589 0.5906,0.370446 0.5906,0.224128 0,-0.146318 0.23403,-0.0718 0.52007,0.165589 0.28604,0.23739 0.67672,0.334804 0.86818,0.216475 0.19146,-0.118328 0.43384,-0.07643 0.53862,0.09311 0.10478,0.169543 0.6949,0.3226 1.31136,0.340125 0.61646,0.01754 1.1942,0.105222 1.28385,0.194872 0.22991,0.22991 11.06909,0.04629 12.81331,-0.217061 z m 45.16461,-0.0025 c 1.92848,-0.429039 2.38742,-0.570192 4.23708,-1.303192 3.02459,-1.198604 7.19149,-4.229218 7.19149,-5.230415 0,-0.236878 0.25126,-0.527103 0.55835,-0.644946 0.3071,-0.117843 0.46873,-0.359268 0.3592,-0.5365 -0.10954,-0.177236 0.0512,-0.418307 0.35714,-0.535714 0.30597,-0.117411 0.45627,-0.375322 0.33402,-0.57314 -0.12226,-0.197814 -0.0426,-0.359664 0.17701,-0.359664 0.21961,0 0.29997,-0.160714 0.17857,-0.357143 -0.1214,-0.196428 -0.041,-0.357143 0.17857,-0.357143 0.21961,0 0.29997,-0.160714 0.17857,-0.357143 -0.1214,-0.196428 -0.041,-0.357142 0.17857,-0.357142 0.21962,0 0.30846,-0.14699 0.19743,-0.32664 -0.11103,-0.17965 -0.033,-0.382925 0.17336,-0.451718 0.20638,-0.06879 0.40229,-0.484307 0.43537,-0.92336 0.0331,-0.439054 0.20384,-0.798282 0.37948,-0.798282 0.17564,0 0.22685,-0.241072 0.11378,-0.535715 -0.11306,-0.294643 -0.0327,-0.535714 0.17857,-0.535714 0.21128,0 0.29362,-0.235925 0.18296,-0.524275 -0.11065,-0.288354 -0.0365,-0.626039 0.16471,-0.750414 0.20124,-0.124372 0.2816,-0.4458 0.17857,-0.714286 -0.10302,-0.268482 -0.0338,-0.583036 0.15385,-0.699004 0.20603,-0.127332 0.28097,-2.855103 0.18919,-6.886435 -0.18379,-8.072965 -0.1684,-7.861175 -0.5901,-8.121804 -0.18714,-0.115654 -0.25216,-0.352814 -0.14449,-0.527025 0.10767,-0.174211 -0.0761,-0.926496 -0.40832,-1.67175 -0.33224,-0.745254 -0.6186,-1.440571 -0.63636,-1.54515 -0.11703,-0.689279 -1.44619,-3.202714 -1.69367,-3.202714 -0.16659,0 -0.3029,-0.188157 -0.3029,-0.418129 0,-0.561403 -5.41615,-5.998348 -5.98214,-6.00511 -0.24554,-0.0029 -0.44643,-0.175532 -0.44643,-0.383553 0,-0.208021 -0.16071,-0.278894 -0.35714,-0.157494 -0.19643,0.1214 -0.35715,0.04104 -0.35715,-0.178571 0,-0.219614 -0.14699,-0.308455 -0.32664,-0.197424 -0.17965,0.111031 -0.38054,0.04481 -0.44642,-0.147166 -0.0659,-0.191972 -0.44122,-0.398515 -0.83408,-0.458986 -0.39286,-0.06047 -0.91518,-0.235317 -1.16071,-0.388548 -0.24554,-0.153232 -0.59604,-0.186139 -0.7789,-0.07313 -0.18285,0.113011 -0.42099,0.06223 -0.5292,-0.112851 -0.1082,-0.17508 -0.60145,-0.355588 -1.0961,-0.401131 -1.97749,-0.182068 -9.35834,-0.117986 -10.36366,0.08998 -1.5163,0.313669 -2.48536,0.551375 -2.58929,0.635144 -0.0491,0.03958 -0.25,0.112146 -0.44642,0.161253 -0.19643,0.04911 -0.4375,0.129465 -0.53572,0.178572 -0.0982,0.04911 -0.29911,0.116957 -0.44643,0.150778 -1.21384,0.278662 -4.37393,2.35287 -6.03349,3.960251 -1.11323,1.078219 -1.92636,1.960399 -1.80698,1.960399 0.1194,0 -0.17402,0.422005 -0.65203,0.93779 -0.47802,0.515782 -0.78228,1.078282 -0.67616,1.25 0.10613,0.171714 0.0133,0.31221 -0.20634,0.31221 -0.21961,0 -0.29997,0.160715 -0.17857,0.357143 0.1214,0.196429 0.041,0.357143 -0.17857,0.357143 -0.21961,0 -0.29997,0.160714 -0.17857,0.357143 0.1214,0.196429 0.0505,0.357143 -0.15749,0.357143 -0.20803,0 -0.34408,0.120536 -0.30235,0.267857 0.0417,0.147321 -0.12464,0.629464 -0.36971,1.071429 -0.24507,0.441964 -0.33989,0.803571 -0.21072,0.803571 0.12918,0 0.0348,0.241071 -0.20973,0.535714 -0.24453,0.294643 -0.32489,0.535715 -0.17857,0.535715 0.14631,0 0.0718,0.234032 -0.16559,0.520071 -0.23739,0.286036 -0.33481,0.676718 -0.21648,0.868179 0.11833,0.19146 0.0543,0.447535 -0.14235,0.569057 -0.4226,0.261178 -0.42608,0.312364 -0.47308,6.971264 -0.0201,2.848214 0.0652,5.821429 0.18961,6.607143 0.4664,2.945882 0.7126,3.962354 1.2543,5.178571 0.30622,0.6875 0.53194,1.370536 0.5016,1.517858 -0.0303,0.147321 0.11504,0.267857 0.32307,0.267857 0.20802,0 0.27889,0.160714 0.15749,0.357143 -0.1214,0.196428 -0.041,0.357142 0.17857,0.357142 0.21961,0 0.29997,0.160715 0.17857,0.357143 -0.1214,0.196429 -0.041,0.357143 0.17857,0.357143 0.21962,0 0.29997,0.160714 0.17857,0.357143 -0.1214,0.196429 -0.0505,0.357143 0.1575,0.357143 0.20802,0 0.37822,0.241071 0.37822,0.535714 0,0.294643 0.1702,0.535714 0.37822,0.535714 0.20802,0 0.27819,0.16185 0.15593,0.359665 -0.12225,0.197818 0.029,0.456082 0.33607,0.573925 0.30709,0.117843 0.55835,0.391182 0.55835,0.607421 0,0.5565 2.55055,3.101847 3.1082,3.101847 0.25477,0 0.46323,0.152257 0.46323,0.33835 0,0.186089 0.80357,0.741957 1.78571,1.23526 0.98215,0.4933 1.78572,0.803511 1.78572,0.68935 0,-0.11416 0.24107,-0.0075 0.53571,0.23704 0.29464,0.244532 0.53572,0.324889 0.53572,0.178571 0,-0.146318 0.23403,-0.0718 0.52007,0.165589 0.28603,0.23739 0.64764,0.357536 0.80357,0.26699 0.15592,-0.09055 0.60493,-0.04118 0.99778,0.10971 0.77884,0.299132 9.44856,0.212604 10.89286,-0.108717 z"
       id="path831"
       inkscape:connector-curvature="0"
       transform="matrix(0.26458333,0,0,0.26458333,75,94.785713)" />
    <path
       style="fill:#b3b3b3;stroke-width:0.35714287"
       d="m 183.05024,69.12261 c -3.24737,-1.062889 -7.21672,-4.756934 -8.87264,-8.257264 -1.42511,-3.012433 -2.01431,-5.77672 -2.01883,-9.471511 -0.007,-5.690931 1.58793,-9.992829 5.10019,-13.756763 2.91058,-3.119149 5.15857,-4.273479 8.32832,-4.276538 2.98501,-0.0029 5.22367,0.95921 8.58164,3.688077 4.38628,3.564516 4.98278,5.592647 4.74304,16.126551 -0.1238,5.439318 -0.26536,6.84985 -0.79845,7.955708 -0.87628,1.817776 -5.51092,6.08216 -7.85857,7.230758 -2.28038,1.115689 -5.18398,1.422375 -7.2047,0.760982 z"
       id="path833"
       inkscape:connector-curvature="0"
       transform="matrix(0.26458333,0,0,0.26458333,75,94.785713)" />
  </g>
</svg>
